<svg width="200" height="200" viewBox="0 0 1024 1024" version="1.1" xmlns="http://www.w3.org/2000/svg">
  <path fill="#12B7F5" d="M796.444 446.009H343.61V320.853c0-86.47 70.542-157.013 157.013-157.013s157.014 70.542 157.014 157.013c0 25.031 20.48 45.511 45.51 45.511s45.512-20.48 45.512-45.51c0-136.534-111.502-248.036-248.036-248.036S252.587 184.32 252.587 320.853V446.01H204.8c-25.031 0-45.511 20.48-45.511 45.511v420.978c0 25.03 20.48 45.51 45.511 45.51h591.644c25.032 0 45.512-20.48 45.512-45.51V491.52c0-25.031-20.48-45.511-45.512-45.511zM537.031 737.28c-2.275 0-4.551 2.276-4.551 4.551v43.236c0 43.235-13.653 50.062-31.858 50.062s-31.858-4.551-31.858-50.062V739.556c0-2.276-2.275-4.552-4.55-4.552-13.654-9.102-22.756-25.03-22.756-45.51 0-31.858 27.306-59.165 59.164-59.165s59.165 25.031 59.165 59.164c2.275 20.48-9.103 36.41-22.756 47.787z"></path>
</svg>
